# xmcd
#
# Track frame offsets: 
#        150
#        11907
#        23150
#        40220
#        50857
#        61489
#        73575
#        86825
#        99402
#        111742
#        121572
#        134352
#        150182
#        160465
#        170727
#        186747
#
# Disc length: 2635 seconds
#
# Revision: 3
# Processed by: cddbd v1.5.2PL0 Copyright (c) Steve Scherf et al.
# Submitted via: ExactAudioCopy v0.99pb4
#
DISCID=e70a4910
DTITLE=John Prine - In Spite Of Ourselves
DYEAR=1999
DGENRE=Folk
TTITLE0=(We're Not) The Jet Set (with Iris DeMent)
TTITLE1=So Sad (To Watch Good Love Go Bad) (with Connie Smith)
TTITLE2=Wedding Bells/Let's Turn Back The Years (with Lucinda Williams
TTITLE2=)
TTITLE3=When Two Worlds Collide (with Trisha Yearwood)
TTITLE4=Milwaukee Here I Come (with Melba Montgomery)
TTITLE5=I Know One (with Emmylou Harris)
TTITLE6=It's A Cheating Situation (with Dolores Keane)
TTITLE7=Back Street Affair (with Patty Loveless)
TTITLE8=Loose Talk (with Connie Smith)
TTITLE9=Let's Invite Them Over (with Iris DeMent)
TTITLE10='Til a Tear Becomes A Rose (with Fiona Prine)
TTITLE11=In A Town This Size (with Dolores Keane)
TTITLE12=We Could (with Iris DeMent)
TTITLE13=We Must Have Been Out Of Our Minds (with Melba Montgomery)
TTITLE14=In Spite Of Ourselves (with Iris DeMent)
TTITLE15=Dear John (I Sent Your Saddle Home)
EXTD=
EXTT0=with Iris DeMent
EXTT1=with Connie Smith
EXTT2=with Lucinda Williams
EXTT3=with Trisha Yearwood
EXTT4=with Melba Montgomery
EXTT5=with Emmylou Harris
EXTT6=with Dolores Keane
EXTT7=with Patty Loveless
EXTT8=with Connie Smith
EXTT9=with Iris DeMent
EXTT10=with Fiona Prine
EXTT11=with Dolores Keane
EXTT12=with Iris DeMent
EXTT13=with Melba Montgomery
EXTT14=with Iris DeMent
EXTT15=
PLAYORDER=
